<svg width="142" height="48" viewBox="0 6 142 48" fill="none" xmlns="http://www.w3.org/2000/svg">
<g id="Group 4">
<g id="Group 3">
<path id="e" d="M102.455 28.3752C102.5 28.8251 102.523 29.5 102.523 30.3998C102.523 33.9542 101.848 37.0361 100.498 39.6457C99.1484 42.2102 97.3262 44.1674 95.0316 45.5171C92.737 46.8669 90.1949 47.5418 87.4054 47.5418C84.481 47.5418 81.8039 46.8219 79.3744 45.3821C76.9448 43.8974 75.0101 41.8278 73.5704 39.1733C72.1756 36.5187 71.4783 33.4593 71.4783 29.9949C71.4783 26.5305 72.1756 23.471 73.5704 20.8165C75.0101 18.162 76.9448 16.1148 79.3744 14.6751C81.8039 13.1904 84.481 12.448 87.4054 12.448C90.3749 12.448 93.0744 13.1904 95.504 14.6751C97.9336 16.1148 99.8457 18.162 101.24 20.8165H80.4542L79.3069 21.8963C77.3722 23.831 75.91 25.8556 74.9202 27.9702C73.9753 30.0849 73.5029 32.1545 73.5029 34.1791C73.5029 35.6189 73.7279 36.9461 74.1778 38.1609C74.6727 39.3307 75.3476 40.343 76.2024 41.1979C78.0471 42.9526 80.3867 43.8299 83.2212 43.8299C85.2008 43.8299 87.248 43.3575 89.3626 42.4127C91.5222 41.4678 93.5693 40.0281 95.504 38.0934C98.2935 35.3489 100.611 32.1095 102.455 28.3752ZM98.6085 18.7919C96.7638 17.0372 94.4242 16.1598 91.5897 16.1598C90.015 16.1598 88.3728 16.4748 86.6631 17.1047C84.9984 17.6896 83.3562 18.5894 81.7364 19.8042H99.4858C99.1259 19.3543 98.8334 19.0168 98.6085 18.7919Z" fill="white"/>
<g id="Group 2">
<g id="et r">
<path d="M32.0586 42.6432V46.8665H0.000244141V13.2725H30.4748V17.4957H4.70341V26.5661H25.6277V30.7894H4.70341V42.6432H32.0586Z" fill="white"/>
<path d="M54.5819 17.4957V46.8665H49.8788V17.4957H34.9534V13.2725H69.5553V17.4957H54.5819Z" fill="white"/>
<path d="M111.222 34.5807V46.8665H106.519V13.2725H128.931C130.691 13.2725 132.29 13.5124 133.73 13.9923C135.17 14.4403 136.386 15.1281 137.377 16.056C138.401 16.9518 139.185 18.0876 139.729 19.4634C140.305 20.8391 140.593 22.4388 140.593 24.2625C140.497 26.95 139.841 29.0777 138.625 30.6454C137.441 32.2131 135.794 33.3169 133.682 33.9568L141.121 46.8185H135.602L128.643 34.5807H111.222ZM111.222 30.3574H127.347C130.131 30.3574 132.194 29.8135 133.538 28.7257C134.914 27.6379 135.602 26.0542 135.602 23.9746C135.602 21.9269 134.962 20.3432 133.682 19.2234C132.402 18.0716 130.467 17.4957 127.875 17.4957H111.222V30.3574Z" fill="white"/>
</g>
<g id="Group 1">
<path id="/" d="M92.2501 13.4976L97.7391 0H98.789L93.2999 13.4976H92.2501Z" fill="white"/>
<path id="/_2" d="M92.9995 13.4976L98.4885 0H99.5384L94.0493 13.4976H92.9995Z" fill="white"/>
<path id="/_3" d="M93.7498 13.4976L99.2388 0H100.289L94.7996 13.4976H93.7498Z" fill="white"/>
</g>
</g>
</g>
</g>
</svg>
